<?xml version="1.0" encoding="UTF-8" standalone="no"?>
<svg
   xmlns:dc="http://purl.org/dc/elements/1.1/"
   xmlns:cc="http://creativecommons.org/ns#"
   xmlns:rdf="http://www.w3.org/1999/02/22-rdf-syntax-ns#"
   xmlns:svg="http://www.w3.org/2000/svg"
   xmlns="http://www.w3.org/2000/svg"
   xmlns:sodipodi="http://sodipodi.sourceforge.net/DTD/sodipodi-0.dtd"
   xmlns:inkscape="http://www.inkscape.org/namespaces/inkscape"
   inkscape:version="1.0 (4035a4fb49, 2020-05-01)"
   sodipodi:docname="okchakko-project--logo.svg"
   xml:space="preserve"
   style="enable-background:new 0 0 339.033 339.033;"
   viewBox="0 0 339.033 339.033"
   y="0px"
   x="0px"
   id="Layer_1"
   version="1.1"><metadata
   id="metadata43"><rdf:RDF><cc:Work
       rdf:about=""><dc:format>image/svg+xml</dc:format><dc:type
         rdf:resource="http://purl.org/dc/dcmitype/StillImage" /><dc:title></dc:title><cc:license
         rdf:resource="http://creativecommons.org/publicdomain/zero/1.0/" /></cc:Work><cc:License
       rdf:about="http://creativecommons.org/publicdomain/zero/1.0/"><cc:permits
         rdf:resource="http://creativecommons.org/ns#Reproduction" /><cc:permits
         rdf:resource="http://creativecommons.org/ns#Distribution" /><cc:permits
         rdf:resource="http://creativecommons.org/ns#DerivativeWorks" /></cc:License></rdf:RDF></metadata><defs
   id="defs41" /><sodipodi:namedview
   inkscape:current-layer="Layer_1"
   inkscape:window-maximized="0"
   inkscape:window-y="176"
   inkscape:window-x="1789"
   inkscape:cy="158.27634"
   inkscape:cx="208.36509"
   inkscape:zoom="1.6978426"
   showgrid="false"
   id="namedview39"
   inkscape:window-height="1545"
   inkscape:window-width="1569"
   inkscape:pageshadow="2"
   inkscape:pageopacity="0"
   guidetolerance="10"
   gridtolerance="10"
   objecttolerance="10"
   borderopacity="1"
   bordercolor="#666666"
   pagecolor="#ffffff" />
<g
   inkscape:export-ydpi="144.97746"
   inkscape:export-xdpi="144.97746"
   id="g6">
	<g
   id="g4">
		<path
   id="path2"
   d="M 169.516,0 C 76.044,0 0,76.045 0,169.517 c 0,93.471 76.044,169.516 169.516,169.516 93.472,0 169.516,-76.044 169.516,-169.516 C 339.032,76.045 262.989,0 169.516,0 Z M 143.367,17.224 C 129.607,29.004 116.434,43.669 105.851,59.28 101.085,66.311 96.8,73.571 92.995,81.017 H 42.93 C 66.133,47.926 101.962,24.312 143.367,17.224 Z m 18.649,227.372 h -59.371 c -8.934,-19.363 -15.104,-41.7 -16.14,-66.79 h 75.511 z M 33.628,96.017 H 86.09 c -8.754,21.293 -13.708,43.833 -14.594,66.79 h -56.34 c 1.034,-24.09 7.6,-46.77 18.472,-66.79 z m -18.404,81.79 H 71.49 c 0.863,23.317 5.768,45.651 14.643,66.79 H 34.51 C 23.359,224.625 16.506,201.944 15.224,177.807 Z m 28.826,81.789 h 49.157 c 3.749,7.149 7.968,14.15 12.671,20.988 12.478,18.143 25.89,31.638 37.218,41.179 -40.627,-7.029 -75.867,-29.976 -99.046,-62.167 z m 117.966,57.991 c -16.754,-12.269 -36.477,-31.838 -51.588,-57.991 h 51.588 z m 0,-154.78 H 86.505 c 0.934,-23.32 6.239,-45.666 15.834,-66.79 h 59.678 v 66.79 z m 0,-81.79 H 109.99 c 2.556,-4.502 5.31,-8.944 8.276,-13.32 15.442,-22.78 32.369,-37.697 43.75,-46.15 z m 161.862,81.79 h -56.341 c -0.886,-22.957 -5.84,-45.497 -14.594,-66.79 h 52.461 c 10.872,20.02 17.44,42.7 18.474,66.79 z M 296.104,81.017 H 246.04 C 242.235,73.571 237.949,66.311 233.184,59.28 222.601,43.668 209.424,29.007 195.663,17.223 c 41.405,7.088 77.235,30.702 100.441,63.794 z M 177.016,21.546 c 11.381,8.453 28.308,23.37 43.75,46.15 2.966,4.376 5.72,8.818 8.276,13.32 h -52.026 z m 0,74.471 h 59.678 c 9.595,21.124 14.9,43.47 15.834,66.79 h -75.512 z m 0,81.79 v 0 h 75.512 c -1.035,25.09 -7.206,47.427 -16.14,66.79 h -59.372 z m 0,81.789 h 51.588 c -15.111,26.152 -34.834,45.722 -51.588,57.991 z m 18.924,62.167 c 11.327,-9.54 24.738,-23.038 37.215,-41.178 4.703,-6.838 8.922,-13.839 12.671,-20.988 h 49.157 c -23.178,32.189 -58.417,55.136 -99.043,62.166 z m 108.583,-77.167 h -51.622 c 8.875,-21.139 13.78,-43.472 14.643,-66.79 h 56.265 c -1.283,24.138 -8.135,46.819 -19.286,66.79 z" />
	</g>
</g>
<g
   id="g8">
</g>
<g
   id="g10">
</g>
<g
   id="g12">
</g>
<g
   id="g14">
</g>
<g
   id="g16">
</g>
<g
   id="g18">
</g>
<g
   id="g20">
</g>
<g
   id="g22">
</g>
<g
   id="g24">
</g>
<g
   id="g26">
</g>
<g
   id="g28">
</g>
<g
   id="g30">
</g>
<g
   id="g32">
</g>
<g
   id="g34">
</g>
<g
   id="g36">
</g>
<path
   inkscape:export-ydpi="144.97746"
   inkscape:export-xdpi="144.97746"
   id="path868"
   d="m 15.729908,157.69905 c 1.502756,-19.17722 6.710058,-38.23116 15.225017,-55.70956 l 2.680485,-5.502146 h 25.974226 25.974227 l -1.116374,2.788386 c -6.448968,16.1077 -11.176609,36.65262 -12.725571,55.30156 l -0.645291,7.76907 H 43.231181 15.365738 Z"
   style="fill:#ff0000;stroke-width:0.7608" /><path
   inkscape:export-ydpi="144.97746"
   inkscape:export-xdpi="144.97746"
   id="path870"
   d="M 101.08377,240.28838 C 93.999543,223.8048 88.705646,203.29094 87.480225,187.57461 c -0.182214,-2.33693 -0.463373,-5.38424 -0.624799,-6.77179 l -0.293501,-2.52283 h 37.493875 37.49388 v 32.92951 32.92951 h -29.4055 -29.40551 z"
   style="fill:#00ff00;stroke-width:0.7608" /><path
   inkscape:export-ydpi="144.97746"
   inkscape:export-xdpi="144.97746"
   id="path872"
   d="m 86.87308,159.55797 c 0.158352,-1.53361 0.430477,-4.46141 0.604724,-6.50623 1.409181,-16.53701 7.151555,-39.10324 13.549106,-53.244889 l 1.50171,-3.319507 h 29.51053 29.51053 v 32.929506 32.92951 H 124.06742 86.585169 Z"
   style="fill:#0000ff;stroke-width:0.7608" /><path
   inkscape:export-ydpi="144.97746"
   inkscape:export-xdpi="144.97746"
   id="path874"
   d="m 132.07246,319.05308 c -28.4475,-7.27315 -52.717803,-21.3715 -73.301995,-42.58034 -5.655331,-5.82694 -13.536307,-15.19092 -13.536307,-16.08349 0,-0.18009 10.77693,-0.26525 23.948734,-0.18924 l 23.948734,0.13819 3.187366,5.57677 c 9.353378,16.36512 20.396418,30.66364 34.764128,45.01252 5.63062,5.62324 9.94919,10.21021 9.59682,10.19327 -0.35236,-0.0169 -4.22573,-0.94741 -8.60748,-2.06768 z"
   style="fill:#00ffff;stroke-width:0.7608" /><path
   inkscape:export-ydpi="144.97746"
   inkscape:export-xdpi="144.97746"
   id="path876"
   d="m 155.70735,312.29745 c -6.77483,-5.42781 -22.58526,-21.37751 -28.29138,-28.5406 -4.17987,-5.24714 -12.16089,-16.62971 -15.20994,-21.6925 l -1.19949,-1.99171 h 25.27157 25.27157 v 28.14942 c 0,15.48218 -0.17926,28.14231 -0.39834,28.13362 -0.21909,-0.009 -2.66889,-1.83489 -5.44399,-4.05823 z"
   style="fill:#ff00ff;stroke-width:0.7608" /><path
   inkscape:export-ydpi="144.97746"
   inkscape:export-xdpi="144.97746"
   id="path878"
   d="M 32.900537,240.8195 C 23.255448,222.27497 17.636658,203.02409 15.77091,182.13062 l -0.343854,-3.85063 h 27.847512 27.84751 l 0.359506,4.91287 c 1.497623,20.46589 6.049692,40.85433 12.984721,58.15776 l 1.117558,2.78839 H 60.105444 34.627027 Z"
   style="fill:#ffff00;stroke-width:0.7608" /><path
   inkscape:export-ydpi="144.97746"
   inkscape:export-xdpi="144.97746"
   id="path880"
   d="M 47.726148,75.130683 C 52.831742,68.454138 63.450883,57.402662 70.19685,51.745136 85.797998,38.661182 103.21136,28.93252 121.76508,22.934503 c 5.62535,-1.818556 18.05589,-5.053082 19.41939,-5.053082 0.35239,0 -3.1952,3.764321 -7.88353,8.365158 -15.72617,15.432658 -28.53638,32.177456 -37.61427,49.167277 l -2.746294,5.139855 H 68.25975 43.579125 Z"
   style="fill:#4d4d4d;stroke-width:0.7608" /><path
   inkscape:export-ydpi="144.97746"
   inkscape:export-xdpi="144.97746"
   id="path882"
   d="M 114.07763,74.844159 C 125.32388,56.61622 138.896,41.003688 155.70735,26.955873 c 2.19087,-1.830728 4.40166,-3.554302 4.91287,-3.830166 0.87997,-0.474862 0.92946,1.040713 0.92946,28.463217 v 28.964787 h -25.49736 -25.49736 z"
   style="fill:#008000;stroke-width:0.7608" /><path
   inkscape:export-ydpi="144.97746"
   inkscape:export-xdpi="144.97746"
   id="path884"
   d="m 177.48331,51.607611 c 0,-15.920355 0.1134,-28.9461 0.252,-28.9461 0.13859,0 2.22988,1.591309 4.6473,3.536242 16.09666,12.950528 31.18987,30.197024 42.57275,48.646406 l 3.52267,5.709552 h -25.49736 -25.49736 z"
   style="fill:#803300;stroke-width:0.7608" /><path
   inkscape:export-ydpi="144.97746"
   inkscape:export-xdpi="144.97746"
   id="path886"
   d="m 242.78062,74.337427 c -8.96246,-16.28232 -20.30958,-31.147081 -35.29147,-46.231924 -5.58486,-5.623245 -9.89456,-10.224082 -9.5771,-10.224082 1.31017,0 13.85832,3.275846 19.35586,5.053082 18.55372,5.998017 35.96708,15.726679 51.56823,28.810633 6.74597,5.657526 17.36511,16.709002 22.4707,23.385547 l 4.14702,5.423028 h -24.62577 -24.62577 z"
   style="fill:#aa4400;stroke-width:0.7608" /><path
   inkscape:export-ydpi="144.97746"
   inkscape:export-xdpi="144.97746"
   id="path888"
   d="M 177.48331,129.41239 V 96.478425 l 29.60374,0.13724 29.60373,0.137239 2.03663,4.756866 c 6.27853,14.66456 11.45907,35.47994 12.82778,51.54197 0.17424,2.04482 0.44637,4.97262 0.60472,6.50623 l 0.28791,2.78839 h -37.48225 -37.48226 z"
   style="fill:#d45500;stroke-width:0.7608" /><path
   inkscape:export-ydpi="144.97746"
   inkscape:export-xdpi="144.97746"
   id="path890"
   d="m 267.77345,161.15134 c -0.002,-4.59024 -2.04902,-21.22954 -3.51254,-28.54776 -2.03378,-10.16976 -6.39955,-25.19232 -9.68554,-33.32785 l -1.12624,-2.788386 h 25.97422 25.97423 l 2.71392,5.570776 c 5.54472,11.38149 9.98283,24.37129 12.4323,36.38779 1.26667,6.21398 2.99572,19.15945 2.99717,22.43987 l 6.4e-4,1.46058 H 295.65776 267.7739 Z"
   style="fill:#ff7f2a;stroke-width:0.7608" /><path
   inkscape:export-ydpi="144.97746"
   inkscape:export-xdpi="144.97746"
   id="path892"
   d="m 177.48331,211.2095 v -32.92951 h 37.44868 37.44867 l -0.2632,2.78839 c -1.39863,14.81719 -2.56027,22.35228 -4.85137,31.46892 -2.53055,10.06942 -4.88289,17.08199 -9.24497,27.5602 l -1.6825,4.04151 h -29.42765 -29.42766 z"
   style="fill:#ff7f2a;stroke-width:0.7608" /><path
   inkscape:export-ydpi="144.97746"
   inkscape:export-xdpi="144.97746"
   id="path894"
   d="m 254.56467,241.35572 c 6.93741,-17.30988 11.48893,-37.69451 12.98673,-58.16286 l 0.35951,-4.91287 h 27.85763 27.85762 l -0.33803,3.58507 c -1.9264,20.43085 -7.29616,39.52094 -15.87338,56.43162 l -2.82858,5.57677 -25.57053,0.13788 -25.57053,0.13787 z"
   style="fill:#ff9955;stroke-width:0.7608" /><path
   inkscape:export-ydpi="144.97746"
   inkscape:export-xdpi="144.97746"
   id="path896"
   d="m 177.48331,288.26632 v -28.19368 h 25.27157 25.27157 l -1.1995,1.99171 c -3.03154,5.03373 -10.96135,16.34275 -15.17605,21.64318 -7.66436,9.63875 -30.02313,31.26868 -33.67309,32.57543 -0.30126,0.10786 -0.4945,-10.84009 -0.4945,-28.01664 z"
   style="fill:#ffb380;stroke-width:0.7608" /><path
   inkscape:export-ydpi="144.97746"
   inkscape:export-xdpi="144.97746"
   id="path898"
   d="m 207.94987,310.92749 c 14.36771,-14.34888 25.41075,-28.6474 34.76413,-45.01252 l 3.18736,-5.57677 23.94874,-0.13819 c 13.1718,-0.076 23.94873,0.009 23.94873,0.18924 0,0.89257 -7.88098,10.25655 -13.5363,16.08349 -20.65589,21.28271 -45.09334,35.44154 -73.54357,42.61047 -4.51461,1.13759 -8.38798,2.06836 -8.60748,2.06836 -0.21951,0 4.20777,-4.60084 9.83839,-10.22408 z"
   style="fill:#ffe6d5;stroke-width:0.7608" /></svg>
